<?xml version="1.0" encoding="utf-8"?>
<!-- Generator: Adobe Illustrator 17.1.0, SVG Export Plug-In . SVG Version: 6.00 Build 0)  -->
<!DOCTYPE svg PUBLIC "-//W3C//DTD SVG 1.1//EN" "http://www.w3.org/Graphics/SVG/1.1/DTD/svg11.dtd">
<svg version="1.1" id="Layer_1" xmlns="http://www.w3.org/2000/svg" xmlns:xlink="http://www.w3.org/1999/xlink" x="0px" y="0px"
	 viewBox="0 0 960 560" enable-background="new 0 0 960 560" xml:space="preserve">
<g enable-background="new    ">
	<path fill="#FFFFFF" stroke="#000000" stroke-miterlimit="10" d="M446.4,314.3h-87.5v-136h18.4v119.9h69.2v16.1H446.4z"/>
	<path fill="#FFFFFF" stroke="#000000" stroke-miterlimit="10" d="M544,314.3h-17.4v-10.8c-1.5,1-3.6,2.5-6.3,4.3
		c-2.6,1.9-5.2,3.3-7.7,4.4c-2.9,1.4-6.3,2.5-10.1,3.5c-3.8,0.9-8.2,1.4-13.3,1.4c-9.3,0-17.2-3-23.8-9.2c-6.5-6-9.8-13.8-9.8-23.3
		c0-7.7,1.6-14,5-18.7c3.4-4.8,8.2-8.6,14.5-11.3c6.3-2.8,14-4.7,22.8-5.5c8.8-1,18.4-1.8,28.6-2.1v-2.6c0-3.9-0.8-7.2-2.1-9.7
		c-1.4-2.5-3.4-4.5-6-6c-2.5-1.4-5.4-2.4-8.9-2.9c-3.5-0.5-7-0.8-10.8-0.8c-4.5,0-9.7,0.6-15.3,1.8c-5.7,1.1-11.4,2.9-17.5,5.2H465
		v-17.2c3.4-0.9,8.3-1.9,14.7-3c6.4-1.1,12.8-1.6,19-1.6c7.3,0,13.7,0.6,19.1,1.8c5.4,1.1,10.1,3.3,14.1,6c3.9,2.8,6.9,6.4,8.9,10.8
		s3,9.9,3,16.5v69.3h0.2V314.3z M526.6,289.2v-28.4c-5.3,0.3-11.6,0.8-18.9,1.4c-7.2,0.6-13,1.5-17.1,2.6c-5,1.4-9.1,3.5-12.2,6.5
		c-3.1,2.9-4.7,7-4.7,12.2c0,5.8,1.8,10.2,5.4,13.2c3.6,2.9,9.1,4.4,16.5,4.4c6.2,0,11.7-1.1,16.9-3.5
		C517.6,295.3,522.2,292.4,526.6,289.2z"/>
	<path fill="#FFFFFF" stroke="#000000" stroke-miterlimit="10" d="M668.9,262.5c0,8.6-1.3,16.2-3.6,23c-2.4,6.8-5.8,12.6-9.9,17.1
		c-4.4,4.8-9.2,8.4-14.5,10.8c-5.3,2.4-11.1,3.6-17.4,3.6c-5.9,0-11.1-0.6-15.5-2c-4.4-1.4-8.7-3.3-13-5.5l-1.1,4.8h-16.4v-142H595
		v50.8c4.9-3.9,10.1-7.2,15.6-9.7s11.7-3.8,18.6-3.8c12.2,0,21.9,4.7,29.1,13.8C665.3,232.7,668.9,245.7,668.9,262.5z M650.9,263
		c0-12.2-2-21.4-6.2-27.7c-4-6.3-10.7-9.4-19.7-9.4c-5,0-10.2,1.1-15.5,3.3c-5.2,2.1-10.1,4.9-14.5,8.3v58.4
		c4.9,2.1,9.2,3.8,12.8,4.5c3.5,0.9,7.5,1.3,12.1,1.3c9.7,0,17.2-3.1,22.8-9.3C648.1,286.2,650.9,276.3,650.9,263z"/>
	<path fill="#FFFFFF" stroke="#000000" stroke-miterlimit="10" d="M714.9,195.2h-19.7v-17.7h19.7V195.2z M713.8,314.3h-17.5v-102
		h17.5V314.3z"/>
	<path fill="#FFFFFF" stroke="#000000" stroke-miterlimit="10" d="M839.7,262.5c0,8.6-1.3,16.2-3.6,23c-2.4,6.8-5.8,12.6-9.9,17.1
		c-4.4,4.8-9.2,8.4-14.5,10.8c-5.3,2.4-11.1,3.6-17.4,3.6c-5.9,0-11.1-0.6-15.5-2c-4.4-1.4-8.7-3.3-13-5.5l-1.1,4.8h-16.4v-142h17.5
		v50.8c4.9-3.9,10.1-7.2,15.6-9.7s11.7-3.8,18.6-3.8c12.2,0,21.9,4.7,29.1,13.8C836.2,232.7,839.7,245.7,839.7,262.5z M821.6,263
		c0-12.2-2-21.4-6.2-27.7s-10.7-9.4-19.7-9.4c-5,0-10.2,1.1-15.5,3.3c-5.2,2.1-10.1,4.9-14.5,8.3v58.4c4.9,2.1,9.2,3.8,12.8,4.5
		c3.5,0.9,7.5,1.3,12.1,1.3c9.7,0,17.2-3.1,22.8-9.3C818.9,286.2,821.6,276.3,821.6,263z"/>
</g>
<g enable-background="new    ">
	<path fill="#FFFFFF" stroke="#000000" stroke-miterlimit="10" d="M482,538.6h-18.4V421.5l-38.5,79.7h-10.9L376,421.5v117.1h-17.2
		V402.8h25l36.9,75.7l35.7-75.7h25.5v135.8H482L482,538.6z"/>
	<path fill="#FFFFFF" stroke="#000000" stroke-miterlimit="10" d="M598.4,538.6H581v-10.8c-1.5,1-3.6,2.5-6.3,4.3
		c-2.6,1.9-5.2,3.3-7.7,4.4c-2.9,1.4-6.3,2.5-10.1,3.5c-3.8,0.9-8.2,1.4-13.3,1.4c-9.3,0-17.2-3-23.8-9.2c-6.5-6-9.8-13.8-9.8-23.3
		c0-7.7,1.6-14,5-18.7s8.2-8.6,14.5-11.3c6.3-2.8,14-4.7,22.8-5.5c8.8-1,18.4-1.8,28.6-2.1v-2.6c0-3.9-0.8-7.2-2.1-9.7s-3.4-4.5-6-6
		c-2.5-1.4-5.4-2.4-8.9-2.8c-3.5-0.5-7-0.8-10.8-0.8c-4.5,0-9.7,0.6-15.3,1.8c-5.7,1.1-11.4,2.9-17.5,5.2h-0.9v-17.5
		c3.4-0.9,8.3-1.9,14.7-3s12.8-1.6,19-1.6c7.3,0,13.7,0.6,19.1,1.8s10.1,3.3,14.1,6c3.9,2.8,6.9,6.4,8.9,10.8s3,9.9,3,16.5v69.4h0.2
		V538.6z M581.1,513.6v-28.4c-5.3,0.3-11.6,0.8-18.9,1.4c-7.2,0.6-13,1.5-17.1,2.6c-5,1.4-9.1,3.5-12.2,6.5c-3.1,2.9-4.7,7-4.7,12.2
		c0,5.8,1.8,10.2,5.4,13.2c3.6,2.9,9.1,4.4,16.5,4.4c6.2,0,11.7-1.1,16.9-3.5C572,519.6,576.7,516.8,581.1,513.6z"/>
	<path fill="#FFFFFF" stroke="#000000" stroke-miterlimit="10" d="M706.1,509.3c0,9.3-3.9,17-11.7,22.9c-7.8,5.9-18.5,8.9-32.1,8.9
		c-7.7,0-14.7-0.9-21.1-2.6c-6.4-1.7-11.8-3.8-16.1-5.9v-19.2h0.9c5.5,4,11.7,7.3,18.4,9.7c6.8,2.4,13.2,3.6,19.4,3.6
		c7.7,0,13.7-1.3,18-3.6s6.5-6.3,6.5-11.4c0-4-1.1-7-3.5-9.2c-2.4-2-6.9-3.8-13.6-5.3c-2.5-0.5-5.7-1.1-9.7-1.9s-7.7-1.5-10.9-2.4
		c-9.1-2.4-15.6-5.9-19.4-10.4c-3.8-4.7-5.7-10.2-5.7-17c0-4.2,0.9-8.2,2.6-11.8c1.8-3.8,4.4-7,8-9.9c3.5-2.9,7.9-5.2,13.2-6.8
		c5.4-1.6,11.3-2.5,18-2.5c6.2,0,12.5,0.8,18.9,2.3c6.3,1.5,11.6,3.3,15.8,5.4v18.4h-0.9c-4.4-3.3-9.9-5.9-16.2-8.2
		c-6.4-2.3-12.6-3.3-18.7-3.3c-6.4,0-11.8,1.3-16.2,3.6c-4.4,2.4-6.5,6-6.5,10.7c0,4.2,1.4,7.4,4,9.4c2.6,2.1,6.8,3.9,12.6,5.2
		c3.3,0.8,6.8,1.5,10.8,2.1c4,0.8,7.3,1.4,9.9,2c8,1.9,14.3,4.9,18.7,9.4C704,495.8,706.1,501.9,706.1,509.3z"/>
	<path fill="#FFFFFF" stroke="#000000" stroke-miterlimit="10" d="M817.2,538.6h-17.5v-11.3c-5.9,4.5-11.6,8-16.9,10.4
		c-5.4,2.4-11.3,3.6-17.9,3.6c-10.9,0-19.4-3.3-25.4-9.8s-9.1-16.1-9.1-28.8v-66.2H748v58.1c0,5.2,0.3,9.6,0.8,13.3
		c0.5,3.6,1.5,6.8,3.1,9.4s3.9,4.7,6.5,5.8c2.6,1.3,6.5,1.9,11.6,1.9c4.5,0,9.4-1.1,14.8-3.5c5.4-2.3,10.3-5.3,15-8.8v-76.1h17.5
		L817.2,538.6L817.2,538.6L817.2,538.6z"/>
	<path fill="#FFFFFF" stroke="#000000" stroke-miterlimit="10" d="M935.7,538.6h-17.5v-10.7c-5,4.3-10.2,7.5-15.7,9.9
		c-5.4,2.4-11.3,3.5-17.7,3.5c-12.3,0-22.3-4.7-29.6-14.1c-7.3-9.4-10.9-22.4-10.9-39c0-8.7,1.3-16.4,3.8-23.1s5.9-12.5,10.2-17.2
		c4.2-4.7,9.2-8.2,14.7-10.6c5.7-2.4,11.4-3.6,17.4-3.6c5.4,0,10.3,0.5,14.5,1.6s8.7,2.9,13.3,5.3v-44.1h17.5V538.6L935.7,538.6
		L935.7,538.6z M918.3,513.6v-58.5c-4.7-2-8.9-3.5-12.6-4.3c-3.8-0.8-7.8-1.1-12.2-1.1c-9.8,0-17.4,3.4-22.9,10.1
		c-5.4,6.7-8.2,16.2-8.2,28.4c0,12.1,2.1,21.3,6.3,27.7c4.2,6.3,10.9,9.4,20.3,9.4c4.9,0,9.9-1.1,15.1-3.3
		C909.1,519.7,913.9,517,918.3,513.6z"/>
</g>
</svg>
